HIERARCHY
ROOT reference
{
  OFFSET 0 0 0
  CHANNELS 6 Xposition Yposition Zposition Zrotation Xrotation Yrotation
  JOINT Hips
  {
    OFFSET 339.145 90.8604 236.464
    CHANNELS 3 Zrotation Xrotation Yrotation
    JOINT RightUpLeg
    {
      OFFSET -9.24113 -1.522 -0.0337757
      CHANNELS 3 Zrotation Xrotation Yrotation
      JOINT RightLeg
      {
        OFFSET 0.0344394 -41.8985 0.100154
        CHANNELS 3 Zrotation Xrotation Yrotation
        JOINT RightFoot
        {
          OFFSET -0.415571 -42.0751 0.023027
          CHANNELS 3 Zrotation Xrotation Yrotation
          End Site
          {
            OFFSET 0 -7.69 17.5
          }
        }
      }
    }
    JOINT LeftUpLeg
    {
      OFFSET 9.30897 -1.67379 -0.0291548
      CHANNELS 3 Zrotation Xrotation Yrotation
      JOINT LeftLeg
      {
        OFFSET 0.0832755 -41.864 -0.14338
        CHANNELS 3 Zrotation Xrotation Yrotation
        JOINT LeftFoot
        {
          OFFSET 0.17151 -41.5225 0.735469
          CHANNELS 3 Zrotation Xrotation Yrotation
          End Site
          {
            OFFSET 0 -7.69 17.5
          }
        }
      }
    }
    JOINT Spine
    {
      OFFSET 0.00853273 14.2903 0.0777264
      CHANNELS 3 Zrotation Xrotation Yrotation
      JOINT Spine1
      {
        OFFSET 0.0173944 9.71323 0.029081
        CHANNELS 3 Zrotation Xrotation Yrotation
        JOINT Spine2
        {
          OFFSET 0.0412483 10.1247 -0.0145163
          CHANNELS 3 Zrotation Xrotation Yrotation
          JOINT Spine3
          {
            OFFSET 0.0279063 9.71793 0.00755232
            CHANNELS 3 Zrotation Xrotation Yrotation
            JOINT Neck
            {
              OFFSET 0.0852486 10.3712 0.0268485
              CHANNELS 3 Zrotation Xrotation Yrotation
              JOINT Head
              {
                OFFSET 0.0739267 9.48251 0.0332551
                CHANNELS 3 Zrotation Xrotation Yrotation
                End Site
                {
                  OFFSET 0 15.95 0
                }
              }
            }
            JOINT RightShoulder
            {
              OFFSET -3.14957 6.95772 0.0300988
              CHANNELS 3 Zrotation Xrotation Yrotation
              JOINT RightArm
              {
                OFFSET -12.7513 0.0411148 0.0791701
                CHANNELS 3 Zrotation Xrotation Yrotation
                JOINT RightForeArm
                {
                  OFFSET -26.4959 0.0361336 0.259434
                  CHANNELS 3 Zrotation Xrotation Yrotation
                  JOINT RightHand
                  {
                    OFFSET -25.9829 -0.0837334 0.191464
                    CHANNELS 3 Zrotation Xrotation Yrotation
                    JOINT RightHandThumb1
                    {
                      OFFSET -2.48905 0.190105 3.12053
                      CHANNELS 3 Zrotation Xrotation Yrotation
                      JOINT RightHandThumb2
                      {
                        OFFSET -3.68274 0 0
                        CHANNELS 3 Zrotation Xrotation Yrotation
                        JOINT RightHandThumb3
                        {
                          OFFSET -2.55832 0 0
                          CHANNELS 3 Zrotation Xrotation Yrotation
                          End Site
                          {
                            OFFSET -2.194 0 0
                          }
                        }
                      }
                    }
                    JOINT RightInHandIndex
                    {
                      OFFSET -3.22368 0.508421 1.97842
                      CHANNELS 3 Zrotation Xrotation Yrotation
                      JOINT RightHandIndex1
                      {
                        OFFSET -5.21684 -0.091368 0.999158
                        CHANNELS 3 Zrotation Xrotation Yrotation
                        JOINT RightHandIndex2
                        {
                          OFFSET -3.61937 0 0
                          CHANNELS 3 Zrotation Xrotation Yrotation
                          JOINT RightHandIndex3
                          {
                            OFFSET -2.0521 0 0
                            CHANNELS 3 Zrotation Xrotation Yrotation
                            End Site
                            {
                              OFFSET -1.805 0 0
                            }
                          }
                        }
                      }
                    }
                    JOINT RightInHandMiddle
                    {
                      OFFSET -3.38211 0.517263 0.756737
                      CHANNELS 3 Zrotation Xrotation Yrotation
                      JOINT RightHandMiddle1
                      {
                        OFFSET -5.17411 -0.084 0.313895
                        CHANNELS 3 Zrotation Xrotation Yrotation
                        JOINT RightHandMiddle2
                        {
                          OFFSET -3.94947 0 0
                          CHANNELS 3 Zrotation Xrotation Yrotation
                          JOINT RightHandMiddle3
                          {
                            OFFSET -2.47579 0 0
                            CHANNELS 3 Zrotation Xrotation Yrotation
                            End Site
                            {
                              OFFSET -1.975 0 0
                            }
                          }
                        }
                      }
                    }
                    JOINT RightInHandRing
                    {
                      OFFSET -3.36516 0.537895 -0.128947
                      CHANNELS 3 Zrotation Xrotation Yrotation
                      JOINT RightHandRing1
                      {
                        OFFSET -4.63474 -0.022105 -0.478947
                        CHANNELS 3 Zrotation Xrotation Yrotation
                        JOINT RightHandRing2
                        {
                          OFFSET -3.44238 0 0
                          CHANNELS 3 Zrotation Xrotation Yrotation
                          JOINT RightHandRing3
                          {
                            OFFSET -2.3881 0 0
                            CHANNELS 3 Zrotation Xrotation Yrotation
                            End Site
                            {
                              OFFSET -1.857 0 0
                            }
                          }
                        }
                      }
                    }
                    JOINT RightInHandPinky
                    {
                      OFFSET -3.16105 0.469368 -1.20179
                      CHANNELS 3 Zrotation Xrotation Yrotation
                      JOINT RightHandPinky1
                      {
                        OFFSET -4.14105 -0.022105 -1.09053
                        CHANNELS 3 Zrotation Xrotation Yrotation
                        JOINT RightHandPinky2
                        {
                          OFFSET -2.75653 0 0
                          CHANNELS 3 Zrotation Xrotation Yrotation
                          JOINT RightHandPinky3
                          {
                            OFFSET -1.74189 0 0
                            CHANNELS 3 Zrotation Xrotation Yrotation
                            End Site
                            {
                              OFFSET -1.645 0 0
                            }
                          }
                        }
                      }
                    }
                  }
                }
              }
            }
            JOINT LeftShoulder
            {
              OFFSET 3.25273 6.91522 -0.0295735
              CHANNELS 3 Zrotation Xrotation Yrotation
              JOINT LeftArm
              {
                OFFSET 12.7785 0.0134102 -0.0213482
                CHANNELS 3 Zrotation Xrotation Yrotation
                JOINT LeftForeArm
                {
                  OFFSET 26.5044 -0.0446277 0.0404034
                  CHANNELS 3 Zrotation Xrotation Yrotation
                  JOINT LeftHand
                  {
                    OFFSET 25.9955 -0.0467726 -0.0166804
                    CHANNELS 3 Zrotation Xrotation Yrotation
                    JOINT LeftHandThumb1
                    {
                      OFFSET 2.48905 0.190105 3.12053
                      CHANNELS 3 Zrotation Xrotation Yrotation
                      JOINT LeftHandThumb2
                      {
                        OFFSET 3.68274 0 0
                        CHANNELS 3 Zrotation Xrotation Yrotation
                        JOINT LeftHandThumb3
                        {
                          OFFSET 2.55832 0 0
                          CHANNELS 3 Zrotation Xrotation Yrotation
                          End Site
                          {
                            OFFSET 2.194 0 0
                          }
                        }
                      }
                    }
                    JOINT LeftInHandIndex
                    {
                      OFFSET 3.22368 0.508421 1.97842
                      CHANNELS 3 Zrotation Xrotation Yrotation
                      JOINT LeftHandIndex1
                      {
                        OFFSET 5.21684 -0.091368 0.999158
                        CHANNELS 3 Zrotation Xrotation Yrotation
                        JOINT LeftHandIndex2
                        {
                          OFFSET 3.61937 0 0
                          CHANNELS 3 Zrotation Xrotation Yrotation
                          JOINT LeftHandIndex3
                          {
                            OFFSET 2.0521 0 0
                            CHANNELS 3 Zrotation Xrotation Yrotation
                            End Site
                            {
                              OFFSET 1.805 0 0
                            }
                          }
                        }
                      }
                    }
                    JOINT LeftInHandMiddle
                    {
                      OFFSET 3.38211 0.517263 0.756737
                      CHANNELS 3 Zrotation Xrotation Yrotation
                      JOINT LeftHandMiddle1
                      {
                        OFFSET 5.17411 -0.084 0.313895
                        CHANNELS 3 Zrotation Xrotation Yrotation
                        JOINT LeftHandMiddle2
                        {
                          OFFSET 3.94947 0 0
                          CHANNELS 3 Zrotation Xrotation Yrotation
                          JOINT LeftHandMiddle3
                          {
                            OFFSET 2.47579 0 0
                            CHANNELS 3 Zrotation Xrotation Yrotation
                            End Site
                            {
                              OFFSET 1.975 0 0
                            }
                          }
                        }
                      }
                    }
                    JOINT LeftInHandRing
                    {
                      OFFSET 3.36516 0.537895 -0.128947
                      CHANNELS 3 Zrotation Xrotation Yrotation
                      JOINT LeftHandRing1
                      {
                        OFFSET 4.63474 -0.022105 -0.478947
                        CHANNELS 3 Zrotation Xrotation Yrotation
                        JOINT LeftHandRing2
                        {
                          OFFSET 3.44238 0 0
                          CHANNELS 3 Zrotation Xrotation Yrotation
                          JOINT LeftHandRing3
                          {
                            OFFSET 2.3881 0 0
                            CHANNELS 3 Zrotation Xrotation Yrotation
                            End Site
                            {
                              OFFSET 1.857 0 0
                            }
                          }
                        }
                      }
                    }
                    JOINT LeftInHandPinky
                    {
                      OFFSET 3.16105 0.469368 -1.20179
                      CHANNELS 3 Zrotation Xrotation Yrotation
                      JOINT LeftHandPinky1
                      {
                        OFFSET 4.14105 -0.022105 -1.09053
                        CHANNELS 3 Zrotation Xrotation Yrotation
                        JOINT LeftHandPinky2
                        {
                          OFFSET 2.75653 0 0
                          CHANNELS 3 Zrotation Xrotation Yrotation
                          JOINT LeftHandPinky3
                          {
                            OFFSET 1.74189 0 0
                            CHANNELS 3 Zrotation Xrotation Yrotation
                            End Site
                            {
                              OFFSET 1.645 0 0
                            }
                          }
                        }
                      }
                    }
                  }
                }
              }
            }
          }
        }
      }
    }
  }
}
MOTION
Frames: 2
Frame Time: 0.00833333
1.050000000000000000e+03 0.000000000000000000e+00 0.000000000000000000e+00 0.000000000000000000e+00 0.000000000000000000e+00 0.000000000000000000e+00 1.966484185212465974e+01 8.741453322566664852e+00 -7.369843047209316467e+01 6.369836884878445460e+00 -2.686784976560768712e+01 7.891855087162943150e+00 -2.373073226188015639e+00 1.474424880274746563e+01 -7.614710329005104583e+00 5.013111145887051201e+00 7.731194927506283676e+00 3.151901367031291556e+01 7.853396060172993742e+00 -2.727146655400061803e+01 -6.730941083574624173e-01 -1.530941546809160059e+00 3.483560813998536076e+01 6.579550122790571720e-01 -4.451012774328941823e+00 -1.223701452037311910e+01 -1.271659706014141378e+01 -1.749818818755395355e+00 4.092386360197528994e+00 5.529759186385476255e+00 -3.996989034507921756e-01 9.140947484550688840e-01 1.523385024517457165e+00 -6.470171900581196400e-01 1.406339638075009280e+00 2.139738426611428324e+00 -3.228136458454929913e-01 -3.063282671096551057e-01 4.304549204907066606e-01 -3.506143524480374030e-01 -3.306187672168960923e+00 4.725621949303480562e+00 -5.053234364489934016e+00 3.132584707945440528e+00 4.225485970098162625e+00 5.173073202220166422e-01 -8.135324145579506450e+00 1.643397165916590552e+01 5.810199104111201507e+01 -2.480571804657552804e+01 3.822077704042261814e+01 2.274569558650642875e+01 -3.294851410936970204e+00 7.487861200380217497e+01 1.343581178009569399e+01 -1.907308165712947101e+01 1.266371866226592502e+01 2.818400000000000105e+01 1.072940000000000005e+01 1.915919999999999845e+01 -1.939568774232161591e-14 -1.296873379150315643e-15 -1.000000000000000000e+01 -1.136451350871355552e-14 -3.370313138357429050e-15 -1.000000000000000000e+01 -7.267396119653466447e-15 -4.416362757633182733e-16 4.251739496258253686e-16 1.998179999999999978e+01 8.718970000000000331e-01 2.396399999999999864e+00 2.400000000000000000e+01 -6.826827119056710368e-15 -3.001947038102938636e-14 2.000000000000000000e+01 -5.804129375642907459e-16 -2.384367662984183493e-14 -7.267396119653466447e-15 -4.416362757633182733e-16 4.251739496258253686e-16 2.000000000000000000e+01 -4.484814798891951893e-16 -1.932054666780028440e-14 2.400000000000000000e+01 -3.971000909132405127e-15 -2.892209848990291076e-14 2.000000000000000000e+01 -9.375935585577055565e-16 -1.949817833068629670e-14 -7.267396119653466447e-15 -4.416362757633182733e-16 4.251739496258253686e-16 1.997479999999999833e+01 -1.025649999999999951e+00 -2.819380000000000219e+00 2.400000000000000000e+01 -1.141338225643225239e-14 -4.332920183845794275e-14 2.000000000000000000e+01 -1.914523453456258734e-15 -3.472453909913187058e-14 -7.267396119653466447e-15 -4.416362757633182733e-16 4.251739496258253686e-16 1.978150000000000119e+01 -3.009479999999999933e+00 -8.305149999999999366e+00 2.400000000000000000e+01 -6.535332343194470157e-15 -2.653881237576175228e-14 2.000000000000000000e+01 -8.624121649947889330e-15 -2.281018398866073456e-14 1.231795792700915726e+01 -1.694969867811076369e+01 -3.760875579866996077e+01 -4.198615817181934773e+01 1.561103252619101944e+01 -8.090313520423758575e+01 1.298864704777458812e+01 -1.771089566471406229e+01 -4.181127296978846886e+01 -2.564803907872722277e+01 -1.385990959188778149e+01 -6.858294323942613957e+00 -2.818400000000000105e+01 1.072940000000000005e+01 -1.915919999999999845e+01 1.337428976380185033e-14 -4.907777792287097534e-16 1.000000000000000000e+01 -2.007806982123943154e-14 -1.675840945978418520e-15 1.000000000000000000e+01 6.028324961144870678e-15 9.702995585876233660e-15 1.073096669855569657e-15 -1.998179999999999978e+01 8.718970000000000331e-01 -2.396399999999999864e+00 -2.400000000000000000e+01 2.462245097596247164e-15 2.590935527834738796e-15 -2.000000000000000000e+01 -1.469690637931500908e-15 3.132872633394854508e-15 6.028324961144870678e-15 9.702995585876233660e-15 1.073096669855569657e-15 -2.000000000000000000e+01 6.057132680870441140e-15 3.174875333061838256e-15 -2.400000000000000000e+01 3.179169085610910958e-16 2.544828270604835328e-15 -2.000000000000000000e+01 2.896269115820521627e-15 1.032762829407559747e-14 6.028324961144870678e-15 9.702995585876233660e-15 1.073096669855569657e-15 -1.997479999999999833e+01 -1.025649999999999951e+00 2.819380000000000219e+00 -2.400000000000000000e+01 -1.315790940757271421e-15 1.248902572697705593e-14 -2.000000000000000000e+01 6.895995463921887137e-16 -4.351174009115753316e-15 6.028324961144870678e-15 9.702995585876233660e-15 1.073096669855569657e-15 -1.978150000000000119e+01 -3.009479999999999933e+00 8.305149999999999366e+00 -2.400000000000000000e+01 1.966587062801955848e-16 7.644474404319452207e-16 -2.000000000000000000e+01 7.765846409892641570e-16 2.371193103418781182e-15
1.050000000000000000e+03 0.000000000000000000e+00 0.000000000000000000e+00 0.000000000000000000e+00 0.000000000000000000e+00 0.000000000000000000e+00 1.954676836185737443e+01 8.769922698764684554e+00 -7.306126511031668258e+01 6.232527389251970362e+00 -2.654374304365079240e+01 7.782206591717690358e+00 -2.354423717759520862e+00 1.468516711735570013e+01 -7.655145192797730758e+00 4.957016579878370521e+00 7.847932590504075101e+00 3.142932363080496572e+01 7.559649859731042199e+00 -2.719508608543674555e+01 -9.559910433034630728e-01 -1.399545533864188229e+00 3.476871422124641242e+01 4.889254153561299887e-01 -4.423393888818643482e+00 -1.215897793348077727e+01 -1.293806117573300796e+01 -1.687905359267810823e+00 4.049842596443458120e+00 5.661377801152079670e+00 -3.856972743039044360e-01 9.009211609302195667e-01 1.559800630655317377e+00 -6.230430719039345977e-01 1.383600077570616760e+00 2.190315834945059770e+00 -3.156237391184860130e-01 -3.038602403362250515e-01 4.109836181359807217e-01 -3.352063184493809800e-01 -3.313021889513159124e+00 4.463640860224494133e+00 -4.925986394742695396e+00 3.217077232690265021e+00 3.995003077102168731e+00 4.712238360597087450e-01 -8.228339513625167356e+00 1.650502977221648848e+01 5.790805751850516003e+01 -2.453122908534768953e+01 3.843890676545311180e+01 2.227973788817362433e+01 -3.068590624813484879e+00 7.480574898703166298e+01 1.342223895188615401e+01 -1.899381460645086150e+01 1.279615514914505958e+01 2.818400000000000105e+01 1.072940000000000005e+01 1.915919999999999845e+01 -1.941265403767277954e-14 -1.291598992223341854e-15 -1.000000000000000000e+01 -1.137597764429792676e-14 -3.381697549220881679e-15 -1.000000000000000000e+01 -7.257543002541319591e-15 -4.241764549450745431e-16 4.269756935911485334e-16 1.998179999999999978e+01 8.718970000000000331e-01 2.396399999999999864e+00 2.400000000000000000e+01 -6.836341873695580459e-15 -3.005536662845162039e-14 2.000000000000000000e+01 -5.716525623129714945e-16 -2.383620941985848797e-14 -7.257543002541319591e-15 -4.241764549450745431e-16 4.269756935911485334e-16 2.000000000000000000e+01 -4.553634006321076830e-16 -1.934625584940884153e-14 2.400000000000000000e+01 -3.988898071536050376e-15 -2.898244609791738644e-14 2.000000000000000000e+01 -9.254766288530944748e-16 -1.952034163873555072e-14 -7.257543002541319591e-15 -4.241764549450745431e-16 4.269756935911485334e-16 1.997479999999999833e+01 -1.025649999999999951e+00 -2.819380000000000219e+00 2.400000000000000000e+01 -1.142959038978050531e-14 -4.340032468009270210e-14 2.000000000000000000e+01 -1.901118574986805785e-15 -3.472123777719215112e-14 -7.257543002541319591e-15 -4.241764549450745431e-16 4.269756935911485334e-16 1.978150000000000119e+01 -3.009479999999999933e+00 -8.305149999999999366e+00 2.400000000000000000e+01 -6.527884717461033646e-15 -2.656999922955914901e-14 2.000000000000000000e+01 -8.614920456117217047e-15 -2.281106637747147674e-14 1.223942633376407230e+01 -1.692142503733596826e+01 -3.749422860114036382e+01 -4.225377866909074243e+01 1.534353767563901982e+01 -8.067914728472493380e+01 1.272218001959458178e+01 -1.778372189183589569e+01 -4.257183154538672909e+01 -2.566790045882358484e+01 -1.379007579535275063e+01 -7.008568978513770809e+00 -2.818400000000000105e+01 1.072940000000000005e+01 -1.915919999999999845e+01 1.335056405987165293e-14 -4.798411701081065926e-16 1.000000000000000000e+01 -2.005188630275686533e-14 -1.657068116044380120e-15 1.000000000000000000e+01 6.036343182069116686e-15 9.705119543569059467e-15 1.058584735304608257e-15 -1.998179999999999978e+01 8.718970000000000331e-01 -2.396399999999999864e+00 -2.400000000000000000e+01 2.456901059548380636e-15 2.552159721717582206e-15 -2.000000000000000000e+01 -1.455383478659758611e-15 3.125471684601153479e-15 6.036343182069116686e-15 9.705119543569059467e-15 1.058584735304608257e-15 -2.000000000000000000e+01 6.046873907328996324e-15 3.117058989352227256e-15 -2.400000000000000000e+01 3.269595299541393028e-16 2.500081722836134298e-15 -2.000000000000000000e+01 2.882415311822526711e-15 1.031223617153614767e-14 6.036343182069116686e-15 9.705119543569059467e-15 1.058584735304608257e-15 -1.997479999999999833e+01 -1.025649999999999951e+00 2.819380000000000219e+00 -2.400000000000000000e+01 -1.319969274954260229e-15 1.242686818260575533e-14 -2.000000000000000000e+01 6.911375655821571315e-16 -4.386698444631984901e-15 6.036343182069116686e-15 9.705119543569059467e-15 1.058584735304608257e-15 -1.978150000000000119e+01 -3.009479999999999933e+00 8.305149999999999366e+00 -2.400000000000000000e+01 1.935834918615670245e-16 7.401511145554979851e-16 -2.000000000000000000e+01 7.770849129063447179e-16 2.402857458198525903e-15
